<svg xmlns="http://www.w3.org/2000/svg" viewBox="0 0 240 240"><defs><linearGradient id="b" x2="0" y2="1"><stop stop-color="#3c3152"/><stop offset="1" stop-color="#0b1018"/></linearGradient></defs><rect width="240" height="240" rx="120" fill="url(#b)"/><circle cx="120" cy="91" r="47" fill="#c98e68"/><path d="M76 87q4-58 48-58 39 0 46 49-20-22-52-21-25 0-42 30z" fill="#17191d"/><path d="M49 230q11-77 71-77t71 77" fill="#2d2340"/><path d="M94 154l26 35 26-35" fill="#f6f2ef"/><path d="M112 174l8 15 8-15 8 56h-32z" fill="#a98cff"/><circle cx="102" cy="91" r="4" fill="#1e2024"/><circle cx="138" cy="91" r="4" fill="#1e2024"/><rect x="91" y="81" width="24" height="18" rx="6" fill="none" stroke="#26282d" stroke-width="3"/><rect x="125" y="81" width="24" height="18" rx="6" fill="none" stroke="#26282d" stroke-width="3"/><path d="M115 89h10" stroke="#26282d" stroke-width="3"/><path d="M105 119q15 8 30 0" fill="none" stroke="#704838" stroke-width="4" stroke-linecap="round"/></svg>